<?xml version="1.0" standalone="yes"?>
<svg xmlns="http://www.w3.org/2000/svg" width="110" height="82">
<path style="fill:#fffefe; stroke:none;" d="M0 0L0 82L110 82L110 0L0 0z"/>
<path style="fill:#f6ae44; stroke:none;" d="M61.0401 11.6566C50.6499 14.9356 55.5017 31.3842 65.9846 28.3318C76.899 25.1538 72.0112 8.19431 61.0401 11.6566z"/>
<path style="fill:#a2c6e2; stroke:none;" d="M47.6667 14.3333L48.3333 14.6667L47.6667 14.3333z"/>
<path style="fill:#6ba4d0; stroke:none;" d="M49 14L49 17L50 17L51 14L49 14z"/>
<path style="fill:#a2c6e2; stroke:none;" d="M51 14L52 15L51 14M44 15L45 16L44 15z"/>
<path style="fill:#6ba4d0; stroke:none;" d="M45 15L46 16L45 15z"/>
<path style="fill:#1b70b2; stroke:none;" d="M42 73C30.7698 51.02 40.1078 34.8854 50 15C21.6136 17.8481 13.3289 63.8449 42 73z"/>
<path style="fill:#a2c6e2; stroke:none;" d="M42 16L43 17L42 16z"/>
<path style="fill:#6ba4d0; stroke:none;" d="M43 16L44 17L43 16z"/>
<path style="fill:#a2c6e2; stroke:none;" d="M40 17L41 18L40 17M38 18L39 19L38 18z"/>
<path style="fill:#6ba4d0; stroke:none;" d="M39 18L40 19L39 18z"/>
<path style="fill:#a2c6e2; stroke:none;" d="M48 18L49 19L48 18z"/>
<path style="fill:#6ba4d0; stroke:none;" d="M37 19L38 20L37 19z"/>
<path style="fill:#a2c6e2; stroke:none;" d="M47 19L48 20L47 19M35 20L36 21L35 20z"/>
<path style="fill:#6ba4d0; stroke:none;" d="M46 20L47 21L46 20z"/>
<path style="fill:#a2c6e2; stroke:none;" d="M34 21L35 22L34 21M33 22L34 23L33 22M45 22L46 23L45 22M32 23L33 24L32 23z"/>
<path style="fill:#6ba4d0; stroke:none;" d="M44 23L45 24L44 23z"/>
<path style="fill:#f6ae44; stroke:none;" d="M50 23C46.4075 29.1784 43.7128 35.9338 42.4637 43C41.6021 47.8747 41.9433 53.0664 42.0039 58C42.1879 72.9878 54.521 80.0145 68 73.6728C84.715 65.8087 96.315 33.1781 75 23L73 27L73 28C86.4171 44.3298 77.9825 63.5363 59 70C54.1428 54.6776 60.5644 44.3488 69 32C59.7588 32.9761 55.9616 29.6015 50 23z"/>
<path style="fill:#a2c6e2; stroke:none;" d="M31 24L32 25L31 24M44 24L45 25L44 24z"/>
<path style="fill:#6ba4d0; stroke:none;" d="M43 25L44 26L43 25z"/>
<path style="fill:#a2c6e2; stroke:none;" d="M43 26L44 27L43 26z"/>
<path style="fill:#6ba4d0; stroke:none;" d="M29 27L30 28L29 27M42 27L43 28L42 27z"/>
<path style="fill:#a2c6e2; stroke:none;" d="M28 28L29 29L28 28M42 28L43 29L42 28z"/>
<path style="fill:#6ba4d0; stroke:none;" d="M41 29L42 30L41 29z"/>
<path style="fill:#a2c6e2; stroke:none;" d="M27 30L28 31L27 30M41 30L42 31L41 30M26 32L27 33L26 32z"/>
<path style="fill:#6ba4d0; stroke:none;" d="M40 32L41 33L40 32M26 33L27 34L26 33z"/>
<path style="fill:#a2c6e2; stroke:none;" d="M40 33L41 34L40 33M25 34L26 35L25 34z"/>
<path style="fill:#6ba4d0; stroke:none;" d="M39 34L40 35L39 34M25 35L26 36L25 35z"/>
<path style="fill:#a2c6e2; stroke:none;" d="M39.3333 35.6667L39.6667 36.3333L39.3333 35.6667M24.3333 37.6667L24.6667 38.3333L24.3333 37.6667z"/>
<path style="fill:#6ba4d0; stroke:none;" d="M38 38L39 39L38 38M24 39L25 40L24 39z"/>
<path style="fill:#a2c6e2; stroke:none;" d="M38 39L39 40L38 39z"/>
<path style="fill:#6ba4d0; stroke:none;" d="M37.3333 41.6667L37.6667 42.3333L37.3333 41.6667z"/>
<path style="fill:#a2c6e2; stroke:none;" d="M37 43L37 46L38 46L37 43M23 45L24 46L23 45z"/>
<path style="fill:#6ba4d0; stroke:none;" d="M36 48L36 55L37 55L36 48M24 50L25 51L24 50z"/>
<path style="fill:#a2c6e2; stroke:none;" d="M24 51L24 54L25 54L24 51z"/>
<path style="fill:#6ba4d0; stroke:none;" d="M25 55L26 56L25 55z"/>
<path style="fill:#a2c6e2; stroke:none;" d="M36 55L37 56L36 55M26 58L27 59L26 58M27 60L28 61L27 60M37 60L38 61L37 60z"/>
<path style="fill:#6ba4d0; stroke:none;" d="M37 61L38 62L37 61z"/>
<path style="fill:#a2c6e2; stroke:none;" d="M29 63L30 64L29 63z"/>
<path style="fill:#6ba4d0; stroke:none;" d="M30 64L31 65L30 64M38 65L39 66L38 65z"/>
<path style="fill:#a2c6e2; stroke:none;" d="M39 67L40 68L39 67z"/>
<path style="fill:#6ba4d0; stroke:none;" d="M39 68L40 69L39 68M36 70L37 71L36 70M40 70L41 71L40 70z"/>
<path style="fill:#a2c6e2; stroke:none;" d="M37 71L38 72L37 71M41 71L42 72L41 71M39 72L40 73L39 72M41.6667 73.3333L42.3333 73.6667L41.6667 73.3333z"/>
</svg>
